<?xml version="1.0" encoding="utf-8"?>
<!-- Generator: Adobe Illustrator 16.0.0, SVG Export Plug-In . SVG Version: 6.00 Build 0)  -->
<!DOCTYPE svg PUBLIC "-//W3C//DTD SVG 1.1 Tiny//EN" "http://www.w3.org/Graphics/SVG/1.1/DTD/svg11-tiny.dtd">
<svg version="1.1" baseProfile="tiny" id="Layer_1" xmlns="http://www.w3.org/2000/svg" xmlns:xlink="http://www.w3.org/1999/xlink"
	 x="0px" y="0px" width="24px" height="24px" viewBox="0 0 24 24" xml:space="preserve">
<g>
	<path d="M1,9.421c0.221,0,0.4-0.18,0.4-0.4V2c0-0.331,0.269-0.6,0.6-0.6h7.021c0.221,0,0.4-0.18,0.4-0.4s-0.18-0.4-0.4-0.4H2
		C1.229,0.6,0.6,1.229,0.6,2v7.021C0.6,9.241,0.779,9.421,1,9.421z"/>
	<path d="M22,0.6h-7.021c-0.221,0-0.4,0.18-0.4,0.4s0.18,0.4,0.4,0.4H22c0.331,0,0.6,0.269,0.6,0.6v7.021c0,0.221,0.18,0.4,0.4,0.4
		s0.4-0.18,0.4-0.4V2C23.4,1.229,22.771,0.6,22,0.6z"/>
	<path d="M23,14.578c-0.221,0-0.4,0.18-0.4,0.4V22c0,0.331-0.269,0.6-0.6,0.6h-7.021c-0.221,0-0.4,0.18-0.4,0.4s0.18,0.4,0.4,0.4H22
		c0.771,0,1.4-0.629,1.4-1.4v-7.021C23.4,14.758,23.221,14.578,23,14.578z"/>
	<path d="M9.021,22.6H2c-0.331,0-0.6-0.269-0.6-0.6v-7.021c0-0.221-0.18-0.4-0.4-0.4s-0.4,0.18-0.4,0.4V22
		c0,0.771,0.629,1.4,1.4,1.4h7.021c0.221,0,0.4-0.18,0.4-0.4S9.241,22.6,9.021,22.6z"/>
</g>
</svg>
